<svg xmlns="http://www.w3.org/2000/svg" viewBox="0 0 128 128"><path fill="url(#a)" d="M0 64c0 18.6 28.7 33.7 64 33.7s64-15.1 64-33.7-28.7-33.7-64-33.7S0 45.4 0 64"/><path fill="#777bb3" d="M64 95.2c34 0 61.5-14 61.5-31.2S98 32.8 64 32.8 2.5 46.8 2.5 64 30 95.2 64 95.2"/><path d="M34.8 67.9c2.8 0 4.8-.6 6.2-1.6 1.3-1 2.2-2.7 2.6-5.1.5-2.3.3-3.9-.5-4.8-.7-.8-2.4-1.3-5-1.3h-4.5L31.1 68zM20.2 83.5a.7.7 0 0 1-.7-.8L26 49a.7.7 0 0 1 .7-.6H41c4.4 0 7.7 1.2 9.8 3.6 2 2.4 2.7 5.7 2 10-.4 1.7-1 3.2-1.8 4.7a15.8 15.8 0 0 1-3.1 3.9 13.7 13.7 0 0 1-5.2 3c-1.8.7-4.2 1-7 1h-5.8L28.2 83a.7.7 0 0 1-.7.5z"/><path fill="#fff" d="M34.2 55.8H38c3 0 4.2.7 4.5 1.1.6.7.8 2.1.4 4.1-.5 2.3-1.3 3.9-2.5 4.8-1.1.9-3 1.4-5.7 1.4H32zm6.7-8H26.7a1.4 1.4 0 0 0-1.3 1l-6.6 33.8a1.4 1.4 0 0 0 1.4 1.6h7.3a1.4 1.4 0 0 0 1.4-1l1.5-8h5.2c2.9 0 5.3-.2 7.2-.9 2-.6 3.8-1.7 5.5-3.2a16.5 16.5 0 0 0 3.2-4.1c.8-1.5 1.4-3.1 1.8-5 .8-4.4.1-7.9-2-10.5-2.3-2.5-5.8-3.8-10.4-3.8zM30.3 68.5h4.5c3 0 5.1-.6 6.6-1.7 1.4-1.1 2.4-3 3-5.6.4-2.5.2-4.3-.7-5.3-1-1-2.8-1.6-5.6-1.6h-5zM40.9 49c4.2 0 7.3 1.1 9.3 3.4 2 2.2 2.5 5.3 1.7 9.3a15.2 15.2 0 0 1-4.6 8.3 13 13 0 0 1-4.9 3c-1.8.5-4 .8-6.8.8h-6.3l-1.8 9h-7.3L26.7 49H41"/><path d="M69.5 74.6a.7.7 0 0 1-.7-.8l2.9-15c.3-1.4.2-2.4-.2-2.8-.3-.3-1-.8-3.2-.8h-5.2L59.4 74a.7.7 0 0 1-.6.6h-7.3a.7.7 0 0 1-.7-.8L57.3 40a.7.7 0 0 1 .7-.5h7.3a.7.7 0 0 1 .7.8l-1.6 8.1h5.7c4.3 0 7.2.8 8.9 2.3 1.7 1.6 2.3 4.2 1.6 7.6l-3 15.7a.7.7 0 0 1-.7.6z"/><path fill="#fff" d="M65.3 38.8H58a1.4 1.4 0 0 0-1.3 1L50 73.7a1.4 1.4 0 0 0 1.4 1.7h7.3A1.4 1.4 0 0 0 60 74l3.7-18h4.6c2.2 0 2.7.5 2.7.5.1.2.3.8 0 2.3l-2.9 15a1.4 1.4 0 0 0 1.4 1.6h7.4a1.4 1.4 0 0 0 1.3-1.2l3-15.7c.8-3.6.2-6.4-1.7-8.2-1.9-1.7-5-2.5-9.4-2.5h-4.8l1.4-7.3a1.4 1.4 0 0 0-1.4-1.6zm0 1.3-1.7 9H70c4 0 6.9.7 8.4 2.2 1.6 1.4 2 3.7 1.4 6.9l-3 15.7h-7.4l2.9-15c.3-1.6.2-2.8-.4-3.4s-1.8-1-3.7-1h-5.8L58.8 74h-7.3L58 40h7.3z"/><path d="M92.1 67.9c2.8 0 5-.6 6.2-1.6q1.95-1.5 2.7-5.1c.5-2.3.3-3.9-.5-4.8-.8-.8-2.5-1.3-5-1.3H91L88.5 68zM77.5 83.5a.7.7 0 0 1-.6-.8L83.4 49a.7.7 0 0 1 .7-.6h14.1q6.75 0 9.9 3.6c2 2.4 2.7 5.7 1.9 10a15.9 15.9 0 0 1-1.7 4.7 15.8 15.8 0 0 1-3.2 3.9 13.7 13.7 0 0 1-5.1 3c-1.9.7-4.2 1-7 1h-5.8L85.6 83a.7.7 0 0 1-.7.5z"/><path fill="#fff" d="M91.6 55.8h3.8c3.2 0 4.2.7 4.6 1.1.6.7.7 2.1.3 4.1q-.6 3.45-2.4 4.8c-1.2.9-3.1 1.4-5.8 1.4h-2.7zm6.6-8H84.1a1.4 1.4 0 0 0-1.4 1l-6.5 33.8a1.4 1.4 0 0 0 1.3 1.6H85a1.4 1.4 0 0 0 1.4-1l1.5-8H93c3 0 5.4-.2 7.3-.9 2-.6 3.8-1.7 5.4-3.2A16.5 16.5 0 0 0 109 67c.8-1.5 1.4-3.1 1.8-5q1.2-6.6-2.1-10.5c-2.2-2.5-5.7-3.8-10.4-3.8zM87.7 68.5H92c3 0 5.2-.6 6.7-1.7 1.4-1.1 2.4-3 2.9-5.6.5-2.5.3-4.3-.7-5.3-.9-1-2.8-1.6-5.6-1.6h-5ZM98.2 49c4.3 0 7.4 1.1 9.3 3.4q3 3.3 1.8 9.3a15.1 15.1 0 0 1-4.6 8.3 13 13 0 0 1-5 3c-1.7.5-4 .8-6.8.8h-6.3l-1.7 9h-7.4L84.1 49z"/><defs><radialGradient id="a" cx="0" cy="0" r="1" gradientTransform="translate(38.4 42.2)scale(84.041)" gradientUnits="userSpaceOnUse"><stop stop-color="#AEB2D5"/><stop offset=".3" stop-color="#AEB2D5"/><stop offset=".8" stop-color="#484C89"/><stop offset="1" stop-color="#484C89"/></radialGradient></defs></svg>