<svg xmlns="http://www.w3.org/2000/svg" width="256" height="187"><path fill="#00A1E2" d="M98 13a100 100 0 0 1 9 8l1.512-1.355c11.516-9.698 23.466-12.073 38.158-10.932 12.154 1.496 21.646 8.592 29.236 17.807C177 28 177 28 178 30c3.8-.485 7.418-1.096 11.125-2.062 13.621-3.01 28.062-.431 40.25 6.187 12.548 8.042 22.868 20.776 26.223 35.574 2.271 18.634.086 34.742-11.598 49.895-8.5 10.08-19.903 17.174-33 19.406a89 89 0 0 1-4.766-.035c-10.145-.427-10.145-.427-19.297 3.113-2.218 2.573-2.218 2.573-4.113 5.344-4.24 5.992-11.044 9.286-18.023 11.11-9.312 1.558-18.01.871-26.801-2.532l-1.617 2.563c-7.973 12.287-17.216 20.37-31.801 24.046-13.286 2.01-26.507.168-37.527-7.925C59.714 168.668 55.154 162.559 51 154l-2.676.105c-14.007.316-26.041-2.672-36.629-12.25-8.181-8.954-12.288-19.198-12.132-31.23l.022-2.515C-.103 96.456 4.262 86.626 12.61 78.44A248 248 0 0 1 20 72l-.656-1.555c-4.091-11.25-3.978-24.63.386-35.765 7.014-14.804 16.318-23.61 31.508-29.735C67.26-.539 84.491 3.378 98 13m45 56c-2.37 2.954-2.37 2.954-2 7l-5 1v2h4l-.812 3c-1.297 5.13-2.21 10.33-3.135 15.54-.949 5.251-.949 5.251-2.053 7.46-1.979.727-3.98 1.398-6 2v2c3.79.44 5.466.402 8.563-1.93 3.188-4.015 3.866-7.54 4.75-12.507l.51-2.526c.852-4.402 1.375-8.533 1.177-13.037h6v-3h-5c.625-2.375.625-2.375 2-5 3.125-1.312 3.125-1.312 6-2l-1-3c-3.633 0-5.047.956-8 3m-61-2v31h4V67zM39 79c-1.089 2.41-1.176 3.48-.328 5.988 1.774 2.688 3.452 3.185 6.453 4.262l2.758 1.016L50 91l-1 4c-6.625.125-6.625.125-10-1l-1 3c4.125 2 7.434 2.415 12 2 2.54-.883 2.54-.883 4-3 .334-3.626.334-3.626 0-7q-2.434-1.256-4.875-2.5l-2.742-1.406C44.134 83.86 44.134 83.86 42 84l1-4h10v-3c-4.67-2.335-10.488-1.934-14 2m21-2v3h11l2 5-2.012-.176c-4.666-.238-7.194-.353-11.175 2.301-2.068 2.75-2.068 2.75-1.938 6 .914 2.962.914 2.962 3.188 4.75 5.022 1.924 9.77 1.552 14.937.125q.118-4.406.188-8.812l.076-2.526.029-2.432.048-2.237C75.904 79.44 74.987 78.605 73 77c-4.003-2.001-8.88-1.373-13 0m33 3c-2.255 3.69-2.262 6.906-1.617 11.066C92.4 94.253 94.453 95.95 97 98c3.127 1.564 6.58 1.4 10 1l3-2-1-2-1.828.14c-6.569.297-6.569.297-9.672-1.953C96 91 96 91 95 88h16c-.395-6.643-.395-6.643-3.125-9.937C102.292 74.057 97.577 75.16 93 80m24-1.812c-2.18 2.592-2.18 2.592-2.312 5.374 2.02 3.754 5.372 5.066 9.312 6.438h3l-1 5c-7.429.143-7.429.143-11-1v3c3.745 2.496 7.653 2.702 12 2 2.711-1.377 2.711-1.377 4-4 .574-3.572.574-3.572-1-7-3.285-2.184-7.001-4-11-4l1-4h10v-3c-5.077-1.692-8.568-2.044-13 1.188M153 79c-2.577 4.212-2.558 8.193-2 13 1.261 2.964 2.223 4.437 4.813 6.313 4.048 1.272 7.067 1.196 10.937-.563 2.919-2.27 4.045-4.261 4.55-7.934.025-4.738-.099-8.043-3.3-11.816-4.984-3.61-10.35-2.617-15 1m23-3v22h4l.184-3.21.254-4.165.119-2.117c.33-5.281.33-5.281 1.443-7.508 1.979-.727 3.98-1.398 6-2v-3c-3.818.275-3.818.275-7 2l-1-2zm17 3c-2.57 4.228-2.55 8.18-2 13 1.336 3.306 2.224 4.56 5.313 6.313 3.727.953 7.17 1.445 10.687-.313v-3l-3.312.063C200 95 200 95 197 94c-1.163-2.327-1.199-3.847-1.25-6.437l-.078-2.372C196 83 196 83 197.254 81.258c3.019-2.175 6.095-1.959 9.746-2.258l-1-3c-7.008-.39-7.008-.39-13 3m18 2c-1.502 4.506-1.716 8.342.188 12.75 2.126 2.64 3.693 3.903 6.812 5.25 3.76.26 6.424.192 10-1v-3l-1.863.035-2.45.028-2.425.035C219 95 219 95 216 94l-2-6h15c1.365-3.094 1.365-3.094-.187-6.562-1.485-3.377-1.485-3.377-3.625-4.876-6.683-1.718-9.503-.247-14.188 4.438"/><path fill="#00A0E1" d="M161 78.5c3 .5 3 .5 4.875 1.938 1.692 3.854 1.672 7.42 1.125 11.562-1.125 2.563-1.125 2.563-3 4-3 .5-3 .5-6 0-2.351-1.802-2.897-3.22-3.281-6.129-.14-3.527-.022-6.18 1.406-9.433C158 79 158 79 161 78.5"/><path fill="#00A1E2" d="M73 88v8c-1.458.054-2.916.093-4.375.125l-2.46.07C64 96 64 96 62 94c.375-3.125.375-3.125 1-6 3.576-1.238 6.337-.75 10 0"/><path fill="#00A1E1" d="M100.875 78.75c3.125.25 3.125.25 5 1.563C107 82 107 82 107 85H95c2.378-5.946 2.378-5.946 5.875-6.25"/><path fill="#00A0E2" d="M219.875 78.688c3.125.312 3.125.312 5 2.187C226 83 226 83 226 85h-12c2.373-5.932 2.373-5.932 5.875-6.312"/></svg>